<mxfile host="Electron" modified="2023-09-05T18:38:24.811Z" agent="Mozilla/5.0 (Windows NT 10.0; Win64; x64) AppleWebKit/537.36 (KHTML, like Gecko) draw.io/21.6.5 Chrome/114.0.5735.243 Electron/25.3.1 Safari/537.36" etag="VVBi_Olu2aKf_Xey8Yrh" version="21.6.5" type="device">
  <diagram name="Page-1" id="QfoNCYvh09NZyEld1Dd6">
    <mxGraphModel dx="1825" dy="1730" grid="1" gridSize="10" guides="1" tooltips="1" connect="1" arrows="1" fold="1" page="1" pageScale="1" pageWidth="850" pageHeight="1100" math="0" shadow="0">
      <root>
        <mxCell id="0" />
        <mxCell id="1" parent="0" />
        <mxCell id="5FsiTKE4B6nF_SysqnlO-53" value="" style="rounded=0;whiteSpace=wrap;html=1;container=0;fillColor=#000000;" vertex="1" parent="1">
          <mxGeometry x="-40" y="880" width="690" height="520" as="geometry" />
        </mxCell>
        <mxCell id="5FsiTKE4B6nF_SysqnlO-1" value="" style="rounded=0;whiteSpace=wrap;html=1;fillColor=#0D0B0F;" vertex="1" parent="1">
          <mxGeometry x="-120" y="-110" width="850" height="760" as="geometry" />
        </mxCell>
        <mxCell id="5FsiTKE4B6nF_SysqnlO-7" value="1" style="rounded=0;whiteSpace=wrap;html=1;" vertex="1" parent="1">
          <mxGeometry x="70" y="230" width="70" height="60" as="geometry" />
        </mxCell>
        <mxCell id="5FsiTKE4B6nF_SysqnlO-8" value="2" style="rounded=0;whiteSpace=wrap;html=1;" vertex="1" parent="1">
          <mxGeometry x="140" y="170" width="70" height="60" as="geometry" />
        </mxCell>
        <mxCell id="5FsiTKE4B6nF_SysqnlO-15" value="" style="group" vertex="1" connectable="0" parent="1">
          <mxGeometry x="-20" y="170" width="90" height="120" as="geometry" />
        </mxCell>
        <mxCell id="5FsiTKE4B6nF_SysqnlO-12" value="" style="rounded=0;whiteSpace=wrap;html=1;fillColor=#f9f7ed;strokeColor=#36393d;" vertex="1" parent="5FsiTKE4B6nF_SysqnlO-15">
          <mxGeometry y="110" width="90" height="10" as="geometry" />
        </mxCell>
        <mxCell id="5FsiTKE4B6nF_SysqnlO-13" value="" style="shape=umlActor;verticalLabelPosition=bottom;verticalAlign=top;html=1;outlineConnect=0;fillColor=#fad9d5;strokeColor=#ae4132;strokeWidth=3;" vertex="1" parent="5FsiTKE4B6nF_SysqnlO-15">
          <mxGeometry x="10" width="70" height="110" as="geometry" />
        </mxCell>
        <mxCell id="5FsiTKE4B6nF_SysqnlO-37" value="" style="group" vertex="1" connectable="0" parent="1">
          <mxGeometry x="-20" y="-60" width="160" height="150" as="geometry" />
        </mxCell>
        <mxCell id="5FsiTKE4B6nF_SysqnlO-6" value="1" style="rounded=0;whiteSpace=wrap;html=1;" vertex="1" parent="5FsiTKE4B6nF_SysqnlO-37">
          <mxGeometry x="90" y="60" width="70" height="60" as="geometry" />
        </mxCell>
        <mxCell id="5FsiTKE4B6nF_SysqnlO-26" value="" style="group" vertex="1" connectable="0" parent="5FsiTKE4B6nF_SysqnlO-37">
          <mxGeometry width="90" height="120" as="geometry" />
        </mxCell>
        <mxCell id="5FsiTKE4B6nF_SysqnlO-27" value="" style="rounded=0;whiteSpace=wrap;html=1;fillColor=#f9f7ed;strokeColor=#36393d;" vertex="1" parent="5FsiTKE4B6nF_SysqnlO-26">
          <mxGeometry y="110" width="90" height="10" as="geometry" />
        </mxCell>
        <mxCell id="5FsiTKE4B6nF_SysqnlO-28" value="" style="shape=umlActor;verticalLabelPosition=bottom;verticalAlign=top;html=1;outlineConnect=0;fillColor=#fad9d5;strokeColor=#ae4132;strokeWidth=3;" vertex="1" parent="5FsiTKE4B6nF_SysqnlO-26">
          <mxGeometry x="10" width="70" height="110" as="geometry" />
        </mxCell>
        <mxCell id="5FsiTKE4B6nF_SysqnlO-33" value="0" style="text;html=1;strokeColor=none;fillColor=none;align=center;verticalAlign=middle;whiteSpace=wrap;rounded=0;" vertex="1" parent="5FsiTKE4B6nF_SysqnlO-37">
          <mxGeometry x="15" y="120" width="60" height="30" as="geometry" />
        </mxCell>
        <mxCell id="5FsiTKE4B6nF_SysqnlO-44" value="0" style="text;html=1;strokeColor=none;fillColor=none;align=center;verticalAlign=middle;whiteSpace=wrap;rounded=0;" vertex="1" parent="1">
          <mxGeometry x="-5" y="290" width="60" height="30" as="geometry" />
        </mxCell>
        <mxCell id="5FsiTKE4B6nF_SysqnlO-46" value="" style="group" vertex="1" connectable="0" parent="1">
          <mxGeometry x="-20" y="410" width="300" height="210" as="geometry" />
        </mxCell>
        <mxCell id="5FsiTKE4B6nF_SysqnlO-32" value="" style="group" vertex="1" connectable="0" parent="5FsiTKE4B6nF_SysqnlO-46">
          <mxGeometry width="300" height="180" as="geometry" />
        </mxCell>
        <mxCell id="5FsiTKE4B6nF_SysqnlO-2" value="1" style="rounded=0;whiteSpace=wrap;html=1;" vertex="1" parent="5FsiTKE4B6nF_SysqnlO-32">
          <mxGeometry x="90" y="120" width="70" height="60" as="geometry" />
        </mxCell>
        <mxCell id="5FsiTKE4B6nF_SysqnlO-3" value="2" style="rounded=0;whiteSpace=wrap;html=1;" vertex="1" parent="5FsiTKE4B6nF_SysqnlO-32">
          <mxGeometry x="160" y="60" width="70" height="60" as="geometry" />
        </mxCell>
        <mxCell id="5FsiTKE4B6nF_SysqnlO-4" value="3" style="rounded=0;whiteSpace=wrap;html=1;" vertex="1" parent="5FsiTKE4B6nF_SysqnlO-32">
          <mxGeometry x="230" width="70" height="60" as="geometry" />
        </mxCell>
        <mxCell id="5FsiTKE4B6nF_SysqnlO-19" value="" style="group" vertex="1" connectable="0" parent="5FsiTKE4B6nF_SysqnlO-32">
          <mxGeometry y="60" width="90" height="120" as="geometry" />
        </mxCell>
        <mxCell id="5FsiTKE4B6nF_SysqnlO-20" value="" style="rounded=0;whiteSpace=wrap;html=1;fillColor=#f9f7ed;strokeColor=#E8E9FF;" vertex="1" parent="5FsiTKE4B6nF_SysqnlO-19">
          <mxGeometry y="110" width="90" height="10" as="geometry" />
        </mxCell>
        <mxCell id="5FsiTKE4B6nF_SysqnlO-21" value="" style="shape=umlActor;verticalLabelPosition=bottom;verticalAlign=top;html=1;outlineConnect=0;strokeWidth=3;fillColor=#fad9d5;strokeColor=#ae4132;" vertex="1" parent="5FsiTKE4B6nF_SysqnlO-19">
          <mxGeometry x="10" width="70" height="110" as="geometry" />
        </mxCell>
        <mxCell id="5FsiTKE4B6nF_SysqnlO-45" value="0" style="text;html=1;strokeColor=none;fillColor=none;align=center;verticalAlign=middle;whiteSpace=wrap;rounded=0;" vertex="1" parent="5FsiTKE4B6nF_SysqnlO-46">
          <mxGeometry x="20" y="180" width="60" height="30" as="geometry" />
        </mxCell>
        <mxCell id="5FsiTKE4B6nF_SysqnlO-48" value="&lt;font style=&quot;font-size: 24px;&quot;&gt;&lt;font face=&quot;Verdana&quot;&gt;0 → 1 → 2&lt;br&gt;0 ------→2&lt;br&gt;&lt;br&gt;&lt;i&gt;2 ways&lt;/i&gt;&lt;/font&gt;&lt;br&gt;&lt;/font&gt;" style="text;html=1;strokeColor=none;fillColor=none;align=left;verticalAlign=middle;whiteSpace=wrap;rounded=0;" vertex="1" parent="1">
          <mxGeometry x="425" y="160" width="135" height="120" as="geometry" />
        </mxCell>
        <mxCell id="5FsiTKE4B6nF_SysqnlO-49" value="&lt;font style=&quot;font-size: 24px;&quot;&gt;&lt;font face=&quot;Verdana&quot;&gt;0 → 1 → 2 → 3&lt;br&gt;0 → 1 ------→ 3&lt;br&gt;0 ------→ 2 → 3&lt;br&gt;&lt;br&gt;&lt;i&gt;3 ways&lt;/i&gt;&lt;/font&gt;&lt;br&gt;&lt;/font&gt;" style="text;html=1;strokeColor=none;fillColor=none;align=left;verticalAlign=middle;whiteSpace=wrap;rounded=0;" vertex="1" parent="1">
          <mxGeometry x="425" y="455" width="220" height="120" as="geometry" />
        </mxCell>
        <mxCell id="5FsiTKE4B6nF_SysqnlO-50" value="&lt;font style=&quot;font-size: 24px;&quot;&gt;&lt;font face=&quot;Verdana&quot;&gt;0 → 1&amp;nbsp;&lt;br&gt;&lt;br&gt;&lt;br&gt;&lt;i&gt;1 way&lt;/i&gt;&lt;/font&gt;&lt;br&gt;&lt;/font&gt;" style="text;html=1;strokeColor=none;fillColor=none;align=left;verticalAlign=middle;whiteSpace=wrap;rounded=0;" vertex="1" parent="1">
          <mxGeometry x="425" y="-70" width="135" height="120" as="geometry" />
        </mxCell>
        <mxCell id="5FsiTKE4B6nF_SysqnlO-51" value="" style="endArrow=none;html=1;rounded=0;exitX=0.003;exitY=0.312;exitDx=0;exitDy=0;exitPerimeter=0;entryX=1;entryY=0.293;entryDx=0;entryDy=0;entryPerimeter=0;" edge="1" parent="1" target="5FsiTKE4B6nF_SysqnlO-1">
          <mxGeometry width="50" height="50" relative="1" as="geometry">
            <mxPoint x="-120.00000000000014" y="111.41999999999999" as="sourcePoint" />
            <mxPoint x="780" y="110" as="targetPoint" />
          </mxGeometry>
        </mxCell>
        <mxCell id="5FsiTKE4B6nF_SysqnlO-52" value="" style="endArrow=none;html=1;rounded=0;exitX=0.002;exitY=0.65;exitDx=0;exitDy=0;exitPerimeter=0;entryX=1.001;entryY=0.592;entryDx=0;entryDy=0;entryPerimeter=0;" edge="1" parent="1" target="5FsiTKE4B6nF_SysqnlO-1">
          <mxGeometry width="50" height="50" relative="1" as="geometry">
            <mxPoint x="-118.00000000000017" y="341.5" as="sourcePoint" />
            <mxPoint x="850.06" y="340" as="targetPoint" />
          </mxGeometry>
        </mxCell>
        <mxCell id="5FsiTKE4B6nF_SysqnlO-79" value="" style="group" vertex="1" connectable="0" parent="1">
          <mxGeometry x="-15" y="910" width="580" height="460" as="geometry" />
        </mxCell>
        <mxCell id="5FsiTKE4B6nF_SysqnlO-60" value="&lt;b&gt;1&lt;/b&gt;" style="rounded=0;whiteSpace=wrap;html=1;" vertex="1" parent="5FsiTKE4B6nF_SysqnlO-79">
          <mxGeometry x="90" y="360" width="70" height="60" as="geometry" />
        </mxCell>
        <mxCell id="5FsiTKE4B6nF_SysqnlO-54" value="&lt;b&gt;2&lt;/b&gt;" style="rounded=0;whiteSpace=wrap;html=1;" vertex="1" parent="5FsiTKE4B6nF_SysqnlO-79">
          <mxGeometry x="160" y="300" width="70" height="60" as="geometry" />
        </mxCell>
        <mxCell id="5FsiTKE4B6nF_SysqnlO-55" value=".." style="rounded=0;whiteSpace=wrap;html=1;" vertex="1" parent="5FsiTKE4B6nF_SysqnlO-79">
          <mxGeometry x="230" y="240" width="70" height="60" as="geometry" />
        </mxCell>
        <mxCell id="5FsiTKE4B6nF_SysqnlO-56" value="&lt;b&gt;i&lt;sup&gt;th&lt;/sup&gt;&lt;/b&gt;" style="rounded=0;whiteSpace=wrap;html=1;fillColor=#e3c800;fontColor=#000000;strokeColor=#B09500;" vertex="1" parent="5FsiTKE4B6nF_SysqnlO-79">
          <mxGeometry x="370" y="120" width="70" height="60" as="geometry" />
        </mxCell>
        <mxCell id="5FsiTKE4B6nF_SysqnlO-57" value="..." style="rounded=0;whiteSpace=wrap;html=1;" vertex="1" parent="5FsiTKE4B6nF_SysqnlO-79">
          <mxGeometry x="440" y="60" width="70" height="60" as="geometry" />
        </mxCell>
        <mxCell id="5FsiTKE4B6nF_SysqnlO-58" value="&lt;b&gt;N&lt;/b&gt;" style="rounded=0;whiteSpace=wrap;html=1;fillColor=#008a00;fontColor=#ffffff;strokeColor=#005700;" vertex="1" parent="5FsiTKE4B6nF_SysqnlO-79">
          <mxGeometry x="510" width="70" height="60" as="geometry" />
        </mxCell>
        <mxCell id="5FsiTKE4B6nF_SysqnlO-61" value="" style="rounded=0;whiteSpace=wrap;html=1;fillColor=#f9f7ed;strokeColor=#36393d;" vertex="1" parent="5FsiTKE4B6nF_SysqnlO-79">
          <mxGeometry y="410" width="90" height="10" as="geometry" />
        </mxCell>
        <mxCell id="5FsiTKE4B6nF_SysqnlO-66" value="&lt;b&gt;0&lt;/b&gt;" style="text;html=1;strokeColor=none;fillColor=none;align=center;verticalAlign=middle;whiteSpace=wrap;rounded=0;" vertex="1" parent="5FsiTKE4B6nF_SysqnlO-79">
          <mxGeometry x="15" y="430" width="60" height="30" as="geometry" />
        </mxCell>
        <mxCell id="5FsiTKE4B6nF_SysqnlO-67" value=".." style="rounded=0;whiteSpace=wrap;html=1;" vertex="1" parent="5FsiTKE4B6nF_SysqnlO-79">
          <mxGeometry x="300" y="180" width="70" height="60" as="geometry" />
        </mxCell>
        <mxCell id="5FsiTKE4B6nF_SysqnlO-75" value="" style="shape=umlActor;verticalLabelPosition=bottom;verticalAlign=top;html=1;outlineConnect=0;fillColor=#fad9d5;strokeColor=#ae4132;strokeWidth=3;" vertex="1" parent="5FsiTKE4B6nF_SysqnlO-79">
          <mxGeometry x="15" y="310" width="60" height="100" as="geometry" />
        </mxCell>
        <mxCell id="5FsiTKE4B6nF_SysqnlO-99" value="&lt;i&gt;This is the state of reaching the i&lt;sup&gt;th&lt;/sup&gt; stair&lt;/i&gt;&lt;sup&gt;&lt;br&gt;&lt;/sup&gt;" style="text;html=1;strokeColor=none;fillColor=none;align=center;verticalAlign=middle;whiteSpace=wrap;rounded=0;" vertex="1" parent="5FsiTKE4B6nF_SysqnlO-79">
          <mxGeometry x="475" y="220" width="87.5" height="70" as="geometry" />
        </mxCell>
        <mxCell id="5FsiTKE4B6nF_SysqnlO-98" value="" style="endArrow=classic;html=1;rounded=0;entryX=1;entryY=1;entryDx=0;entryDy=0;exitX=-0.005;exitY=0.119;exitDx=0;exitDy=0;exitPerimeter=0;" edge="1" parent="5FsiTKE4B6nF_SysqnlO-79" source="5FsiTKE4B6nF_SysqnlO-99" target="5FsiTKE4B6nF_SysqnlO-56">
          <mxGeometry width="50" height="50" relative="1" as="geometry">
            <mxPoint x="415" y="250" as="sourcePoint" />
            <mxPoint x="465" y="200" as="targetPoint" />
          </mxGeometry>
        </mxCell>
        <mxCell id="5FsiTKE4B6nF_SysqnlO-81" value="" style="rounded=0;whiteSpace=wrap;html=1;container=0;fillColor=#000000;" vertex="1" parent="1">
          <mxGeometry x="-40" y="1480" width="690" height="520" as="geometry" />
        </mxCell>
        <mxCell id="5FsiTKE4B6nF_SysqnlO-82" value="" style="group" vertex="1" connectable="0" parent="1">
          <mxGeometry x="-15" y="1510" width="615" height="460" as="geometry" />
        </mxCell>
        <mxCell id="5FsiTKE4B6nF_SysqnlO-83" value="&lt;b&gt;1&lt;/b&gt;" style="rounded=0;whiteSpace=wrap;html=1;" vertex="1" parent="5FsiTKE4B6nF_SysqnlO-82">
          <mxGeometry x="90" y="360" width="70" height="60" as="geometry" />
        </mxCell>
        <mxCell id="5FsiTKE4B6nF_SysqnlO-84" value="..." style="rounded=0;whiteSpace=wrap;html=1;" vertex="1" parent="5FsiTKE4B6nF_SysqnlO-82">
          <mxGeometry x="160" y="300" width="70" height="60" as="geometry" />
        </mxCell>
        <mxCell id="5FsiTKE4B6nF_SysqnlO-85" value="&lt;b&gt;(i-2)&lt;sup&gt;th&lt;/sup&gt;&lt;/b&gt;" style="rounded=0;whiteSpace=wrap;html=1;fillColor=#d2cb93;fontColor=#000000;strokeColor=#B09500;" vertex="1" parent="5FsiTKE4B6nF_SysqnlO-82">
          <mxGeometry x="230" y="240" width="70" height="60" as="geometry" />
        </mxCell>
        <mxCell id="5FsiTKE4B6nF_SysqnlO-86" value="&lt;b&gt;i&lt;sup&gt;th&lt;/sup&gt;&lt;/b&gt;" style="rounded=0;whiteSpace=wrap;html=1;fillColor=#e3c800;fontColor=#000000;strokeColor=#B09500;" vertex="1" parent="5FsiTKE4B6nF_SysqnlO-82">
          <mxGeometry x="370" y="120" width="70" height="60" as="geometry" />
        </mxCell>
        <mxCell id="5FsiTKE4B6nF_SysqnlO-87" value="..." style="rounded=0;whiteSpace=wrap;html=1;" vertex="1" parent="5FsiTKE4B6nF_SysqnlO-82">
          <mxGeometry x="440" y="60" width="70" height="60" as="geometry" />
        </mxCell>
        <mxCell id="5FsiTKE4B6nF_SysqnlO-88" value="&lt;b&gt;N&lt;/b&gt;" style="rounded=0;whiteSpace=wrap;html=1;fillColor=#008a00;fontColor=#ffffff;strokeColor=#005700;" vertex="1" parent="5FsiTKE4B6nF_SysqnlO-82">
          <mxGeometry x="510" width="70" height="60" as="geometry" />
        </mxCell>
        <mxCell id="5FsiTKE4B6nF_SysqnlO-89" value="" style="rounded=0;whiteSpace=wrap;html=1;fillColor=#f9f7ed;strokeColor=#36393d;" vertex="1" parent="5FsiTKE4B6nF_SysqnlO-82">
          <mxGeometry y="410" width="90" height="10" as="geometry" />
        </mxCell>
        <mxCell id="5FsiTKE4B6nF_SysqnlO-90" value="&lt;b&gt;0&lt;/b&gt;" style="text;html=1;strokeColor=none;fillColor=none;align=center;verticalAlign=middle;whiteSpace=wrap;rounded=0;" vertex="1" parent="5FsiTKE4B6nF_SysqnlO-82">
          <mxGeometry x="15" y="430" width="60" height="30" as="geometry" />
        </mxCell>
        <mxCell id="5FsiTKE4B6nF_SysqnlO-91" value="&lt;b&gt;(i-1)&lt;sup&gt;th&lt;/sup&gt;&lt;/b&gt;" style="rounded=0;whiteSpace=wrap;html=1;fillColor=#d8c95a;fontColor=#000000;strokeColor=#B09500;" vertex="1" parent="5FsiTKE4B6nF_SysqnlO-82">
          <mxGeometry x="300" y="180" width="70" height="60" as="geometry" />
        </mxCell>
        <mxCell id="5FsiTKE4B6nF_SysqnlO-92" value="" style="shape=umlActor;verticalLabelPosition=bottom;verticalAlign=top;html=1;outlineConnect=0;fillColor=#fad9d5;strokeColor=#ae4132;strokeWidth=3;" vertex="1" parent="5FsiTKE4B6nF_SysqnlO-82">
          <mxGeometry x="15" y="310" width="60" height="100" as="geometry" />
        </mxCell>
        <mxCell id="5FsiTKE4B6nF_SysqnlO-93" value="" style="endArrow=classic;html=1;rounded=0;entryX=1;entryY=1;entryDx=0;entryDy=0;" edge="1" parent="5FsiTKE4B6nF_SysqnlO-82" target="5FsiTKE4B6nF_SysqnlO-91">
          <mxGeometry width="50" height="50" relative="1" as="geometry">
            <mxPoint x="405" y="330" as="sourcePoint" />
            <mxPoint x="455" y="280" as="targetPoint" />
          </mxGeometry>
        </mxCell>
        <mxCell id="5FsiTKE4B6nF_SysqnlO-94" value="&lt;i&gt;penultimate states&lt;/i&gt;" style="text;html=1;strokeColor=none;fillColor=none;align=center;verticalAlign=middle;whiteSpace=wrap;rounded=0;" vertex="1" parent="5FsiTKE4B6nF_SysqnlO-82">
          <mxGeometry x="405" y="330" width="75" height="30" as="geometry" />
        </mxCell>
        <mxCell id="5FsiTKE4B6nF_SysqnlO-95" value="" style="endArrow=classic;html=1;rounded=0;exitX=0;exitY=0.5;exitDx=0;exitDy=0;entryX=1;entryY=1;entryDx=0;entryDy=0;" edge="1" parent="5FsiTKE4B6nF_SysqnlO-82" source="5FsiTKE4B6nF_SysqnlO-94" target="5FsiTKE4B6nF_SysqnlO-85">
          <mxGeometry width="50" height="50" relative="1" as="geometry">
            <mxPoint x="345" y="380" as="sourcePoint" />
            <mxPoint x="395" y="330" as="targetPoint" />
          </mxGeometry>
        </mxCell>
        <mxCell id="5FsiTKE4B6nF_SysqnlO-96" value="&lt;i&gt;No. of distict ways to reach i&lt;sup&gt;th&lt;/sup&gt; stair&lt;/i&gt;" style="text;html=1;strokeColor=none;fillColor=none;align=center;verticalAlign=middle;whiteSpace=wrap;rounded=0;" vertex="1" parent="5FsiTKE4B6nF_SysqnlO-82">
          <mxGeometry x="445" y="195" width="85" height="55" as="geometry" />
        </mxCell>
        <mxCell id="5FsiTKE4B6nF_SysqnlO-97" value="&lt;i&gt;=&amp;nbsp; &amp;nbsp;ways ( i )&lt;/i&gt;" style="text;html=1;strokeColor=none;fillColor=none;align=center;verticalAlign=middle;whiteSpace=wrap;rounded=0;" vertex="1" parent="5FsiTKE4B6nF_SysqnlO-82">
          <mxGeometry x="530" y="195" width="85" height="55" as="geometry" />
        </mxCell>
        <mxCell id="5FsiTKE4B6nF_SysqnlO-102" value="" style="rounded=0;whiteSpace=wrap;html=1;container=0;fillColor=#000000;labelBackgroundColor=#000000;" vertex="1" parent="1">
          <mxGeometry x="-50" y="2160" width="710" height="520" as="geometry" />
        </mxCell>
        <mxCell id="5FsiTKE4B6nF_SysqnlO-103" value="&lt;font style=&quot;font-size: 36px;&quot;&gt;A&lt;/font&gt;" style="ellipse;whiteSpace=wrap;html=1;aspect=fixed;fontStyle=1" vertex="1" parent="1">
          <mxGeometry x="20" y="2340" width="80" height="80" as="geometry" />
        </mxCell>
        <mxCell id="5FsiTKE4B6nF_SysqnlO-104" value="&lt;font style=&quot;font-size: 36px;&quot;&gt;C&lt;/font&gt;" style="ellipse;whiteSpace=wrap;html=1;aspect=fixed;fontStyle=1" vertex="1" parent="1">
          <mxGeometry x="510" y="2340" width="80" height="80" as="geometry" />
        </mxCell>
        <mxCell id="5FsiTKE4B6nF_SysqnlO-105" value="&lt;font style=&quot;font-size: 36px;&quot;&gt;B&lt;/font&gt;" style="ellipse;whiteSpace=wrap;html=1;aspect=fixed;fontStyle=1" vertex="1" parent="1">
          <mxGeometry x="265" y="2340" width="80" height="80" as="geometry" />
        </mxCell>
        <mxCell id="5FsiTKE4B6nF_SysqnlO-109" value="" style="curved=1;endArrow=classic;html=1;rounded=0;exitX=1;exitY=0;exitDx=0;exitDy=0;entryX=0;entryY=0;entryDx=0;entryDy=0;strokeWidth=5;fillColor=#e3c800;strokeColor=#B09500;" edge="1" parent="1" source="5FsiTKE4B6nF_SysqnlO-103" target="5FsiTKE4B6nF_SysqnlO-105">
          <mxGeometry width="50" height="50" relative="1" as="geometry">
            <mxPoint x="90" y="2330" as="sourcePoint" />
            <mxPoint x="140" y="2280" as="targetPoint" />
            <Array as="points">
              <mxPoint x="180" y="2260" />
            </Array>
          </mxGeometry>
        </mxCell>
        <mxCell id="5FsiTKE4B6nF_SysqnlO-114" value="&lt;font style=&quot;font-size: 18px;&quot;&gt;&amp;nbsp;1&amp;nbsp;&lt;/font&gt;" style="edgeLabel;html=1;align=center;verticalAlign=middle;resizable=0;points=[];labelBackgroundColor=#000000;" vertex="1" connectable="0" parent="5FsiTKE4B6nF_SysqnlO-109">
          <mxGeometry x="0.1873" y="-27" relative="1" as="geometry">
            <mxPoint x="-1" y="2" as="offset" />
          </mxGeometry>
        </mxCell>
        <mxCell id="5FsiTKE4B6nF_SysqnlO-110" value="" style="curved=1;endArrow=classic;html=1;rounded=0;exitX=1;exitY=1;exitDx=0;exitDy=0;entryX=0;entryY=1;entryDx=0;entryDy=0;strokeWidth=5;fillColor=#0050ef;strokeColor=#001DBC;" edge="1" parent="1" source="5FsiTKE4B6nF_SysqnlO-103" target="5FsiTKE4B6nF_SysqnlO-105">
          <mxGeometry width="50" height="50" relative="1" as="geometry">
            <mxPoint x="76" y="2492" as="sourcePoint" />
            <mxPoint x="265" y="2492" as="targetPoint" />
            <Array as="points">
              <mxPoint x="170" y="2500" />
            </Array>
          </mxGeometry>
        </mxCell>
        <mxCell id="5FsiTKE4B6nF_SysqnlO-117" value="&lt;font style=&quot;font-size: 18px;&quot;&gt;&amp;nbsp;3&amp;nbsp;&lt;/font&gt;" style="edgeLabel;html=1;align=center;verticalAlign=middle;resizable=0;points=[];labelBackgroundColor=#000000;" vertex="1" connectable="0" parent="5FsiTKE4B6nF_SysqnlO-110">
          <mxGeometry x="0.1773" y="32" relative="1" as="geometry">
            <mxPoint x="6" as="offset" />
          </mxGeometry>
        </mxCell>
        <mxCell id="5FsiTKE4B6nF_SysqnlO-111" value="" style="curved=1;endArrow=classic;html=1;rounded=0;entryX=0;entryY=0.5;entryDx=0;entryDy=0;strokeWidth=5;fillColor=#60a917;strokeColor=#2D7600;" edge="1" parent="1" target="5FsiTKE4B6nF_SysqnlO-105">
          <mxGeometry width="50" height="50" relative="1" as="geometry">
            <mxPoint x="100" y="2380" as="sourcePoint" />
            <mxPoint x="289" y="2380" as="targetPoint" />
            <Array as="points" />
          </mxGeometry>
        </mxCell>
        <mxCell id="5FsiTKE4B6nF_SysqnlO-115" value="&lt;font style=&quot;font-size: 18px;&quot;&gt;&amp;nbsp;2&amp;nbsp;&lt;/font&gt;" style="edgeLabel;html=1;align=center;verticalAlign=middle;resizable=0;points=[];labelBackgroundColor=#000000;" vertex="1" connectable="0" parent="5FsiTKE4B6nF_SysqnlO-111">
          <mxGeometry x="-0.0956" y="5" relative="1" as="geometry">
            <mxPoint x="5" y="5" as="offset" />
          </mxGeometry>
        </mxCell>
        <mxCell id="5FsiTKE4B6nF_SysqnlO-112" value="" style="curved=1;endArrow=classic;html=1;rounded=0;entryX=0;entryY=0.5;entryDx=0;entryDy=0;strokeWidth=5;fillColor=#d80073;strokeColor=#A50040;" edge="1" parent="1">
          <mxGeometry width="50" height="50" relative="1" as="geometry">
            <mxPoint x="345" y="2379.58" as="sourcePoint" />
            <mxPoint x="510" y="2379.58" as="targetPoint" />
            <Array as="points" />
          </mxGeometry>
        </mxCell>
        <mxCell id="5FsiTKE4B6nF_SysqnlO-118" value="&lt;font style=&quot;font-size: 18px;&quot;&gt;&amp;nbsp;x&amp;nbsp;&lt;/font&gt;" style="edgeLabel;html=1;align=center;verticalAlign=middle;resizable=0;points=[];labelBackgroundColor=#000000;" vertex="1" connectable="0" parent="5FsiTKE4B6nF_SysqnlO-112">
          <mxGeometry x="0.0897" y="-2" relative="1" as="geometry">
            <mxPoint x="-7" y="-2" as="offset" />
          </mxGeometry>
        </mxCell>
        <mxCell id="5FsiTKE4B6nF_SysqnlO-113" value="" style="curved=1;endArrow=classic;html=1;rounded=0;entryX=0;entryY=1;entryDx=0;entryDy=0;strokeWidth=5;fillColor=#b1ddf0;strokeColor=#10739e;exitX=1;exitY=1;exitDx=0;exitDy=0;" edge="1" parent="1" source="5FsiTKE4B6nF_SysqnlO-105" target="5FsiTKE4B6nF_SysqnlO-104">
          <mxGeometry width="50" height="50" relative="1" as="geometry">
            <mxPoint x="330" y="2410" as="sourcePoint" />
            <mxPoint x="495" y="2410" as="targetPoint" />
            <Array as="points">
              <mxPoint x="420" y="2500" />
            </Array>
          </mxGeometry>
        </mxCell>
        <mxCell id="5FsiTKE4B6nF_SysqnlO-119" value="&lt;font style=&quot;font-size: 18px;&quot;&gt;&amp;nbsp;y&amp;nbsp;&lt;/font&gt;" style="edgeLabel;html=1;align=center;verticalAlign=middle;resizable=0;points=[];labelBackgroundColor=#000000;" vertex="1" connectable="0" parent="5FsiTKE4B6nF_SysqnlO-113">
          <mxGeometry x="0.2112" y="28" relative="1" as="geometry">
            <mxPoint x="1" as="offset" />
          </mxGeometry>
        </mxCell>
        <mxCell id="5FsiTKE4B6nF_SysqnlO-121" value="&lt;div style=&quot;&quot;&gt;&lt;font style=&quot;font-size: 18px;&quot;&gt;&lt;span style=&quot;background-color: initial;&quot;&gt;1, x&lt;/span&gt;&lt;span style=&quot;background-color: initial; white-space: pre;&quot;&gt;&#x9;&lt;/span&gt;&lt;span style=&quot;background-color: initial; white-space: pre;&quot;&gt;&#x9;&lt;/span&gt;&lt;span style=&quot;background-color: initial;&quot;&gt;2, x&amp;nbsp;&lt;/span&gt;&lt;span style=&quot;background-color: initial; white-space: pre;&quot;&gt;&#x9;&lt;/span&gt;&lt;span style=&quot;background-color: initial; white-space: pre;&quot;&gt;&#x9;&lt;/span&gt;&lt;span style=&quot;background-color: initial;&quot;&gt;3, x&lt;/span&gt;&lt;/font&gt;&lt;/div&gt;&lt;div style=&quot;&quot;&gt;&lt;font style=&quot;font-size: 18px;&quot;&gt;&lt;span style=&quot;background-color: initial;&quot;&gt;1, y &lt;/span&gt;&lt;span style=&quot;background-color: initial; white-space: pre;&quot;&gt;&#x9;&lt;/span&gt;&lt;span style=&quot;background-color: initial; white-space: pre;&quot;&gt;&#x9;&lt;/span&gt;&lt;span style=&quot;background-color: initial;&quot;&gt;2, y&lt;/span&gt;&lt;span style=&quot;background-color: initial; white-space: pre;&quot;&gt;&#x9;&lt;/span&gt;&lt;span style=&quot;background-color: initial; white-space: pre;&quot;&gt;&#x9;&lt;/span&gt;&lt;span style=&quot;background-color: initial;&quot;&gt;3, y&lt;/span&gt;&lt;/font&gt;&lt;/div&gt;" style="text;html=1;strokeColor=none;fillColor=none;align=left;verticalAlign=middle;whiteSpace=wrap;rounded=0;" vertex="1" parent="1">
          <mxGeometry x="290" y="2540" width="210" height="60" as="geometry" />
        </mxCell>
        <mxCell id="5FsiTKE4B6nF_SysqnlO-122" value="&lt;font style=&quot;font-size: 18px;&quot;&gt;Number of ways to reach from A to C&lt;/font&gt;" style="text;html=1;strokeColor=none;fillColor=none;align=center;verticalAlign=middle;whiteSpace=wrap;rounded=0;fontStyle=2" vertex="1" parent="1">
          <mxGeometry x="125" y="2555" width="100" height="30" as="geometry" />
        </mxCell>
      </root>
    </mxGraphModel>
  </diagram>
</mxfile>
